M48
; DRILL file {KiCad (6.0.0-rc1-120-ge56e61ffb5)} date Sat Jan  8 17:42:39 2022
; FORMAT={-:-/ absolute / inch / decimal}
; #@! TF.CreationDate,2022-01-08T17:42:39+01:00
; #@! TF.GenerationSoftware,Kicad,Pcbnew,(6.0.0-rc1-120-ge56e61ffb5)
; #@! TF.FileFunction,Plated,1,2,PTH
FMAT,2
INCH
; #@! TA.AperFunction,Plated,PTH,ComponentDrill
T1C0.0276
; #@! TA.AperFunction,Plated,PTH,ComponentDrill
T2C0.0300
; #@! TA.AperFunction,Plated,PTH,ComponentDrill
T3C0.0315
; #@! TA.AperFunction,Plated,PTH,ComponentDrill
T4C0.0394
; #@! TA.AperFunction,Plated,PTH,ComponentDrill
T5C0.0433
; #@! TA.AperFunction,Plated,PTH,ComponentDrill
T6C0.1200
; #@! TA.AperFunction,Plated,PTH,ComponentDrill
T7C0.1378
%
G90
G05
T1
X4.4852Y-3.145
X4.5072Y-3.0774
X4.5072Y-3.2126
X4.5647Y-3.0357
X4.5647Y-3.2543
X4.6357Y-3.0357
X4.6357Y-3.2543
X4.6932Y-3.0774
X4.6932Y-3.2126
X4.7152Y-3.145
X5.45Y-3.833
X5.45Y-4.033
X6.39Y-4.465
X6.39Y-4.665
X6.5Y-4.465
X6.5Y-4.665
T2
X4.57Y-4.425
X4.57Y-4.5037
X4.57Y-4.5825
X4.57Y-4.6612
T3
X4.8692Y-4.5246
X4.8692Y-4.6246
X4.8692Y-4.7246
X4.8692Y-4.8246
X5.1692Y-4.5246
X5.1692Y-4.6246
X5.1692Y-4.7246
X5.1692Y-4.8246
T4
X5.11Y-2.975
X5.21Y-2.975
X5.31Y-2.975
X5.41Y-2.975
X5.47Y-4.875
X5.51Y-2.975
X5.57Y-4.875
X5.61Y-2.975
X5.67Y-4.875
X5.71Y-2.975
X5.77Y-4.875
X5.81Y-2.975
X5.87Y-4.475
X5.87Y-4.675
X5.87Y-4.875
X5.91Y-2.975
X5.97Y-4.475
X5.97Y-4.675
X5.97Y-4.875
X6.01Y-2.975
X6.07Y-4.475
X6.07Y-4.675
X6.07Y-4.875
X6.17Y-2.975
X6.17Y-4.875
X6.27Y-2.975
X6.37Y-2.975
X6.37Y-4.875
X6.47Y-2.975
X6.47Y-4.875
X6.57Y-2.975
X6.57Y-4.875
X6.67Y-2.975
X6.67Y-4.875
X6.77Y-2.975
X6.77Y-4.875
X6.78Y-3.355
X6.78Y-3.455
X6.78Y-3.555
X6.78Y-3.655
X6.78Y-3.755
X6.78Y-3.855
X6.78Y-3.955
X6.78Y-4.055
X6.87Y-2.975
X6.87Y-4.875
T5
X4.57Y-3.505
X4.57Y-3.605
T6
X4.97Y-2.975
X6.97Y-3.575
X6.97Y-4.675
T7
X5.0083Y-3.175
X5.2839Y-4.238
X6.78Y-3.175
X6.78Y-4.238
T0
M30
