%TF.GenerationSoftware,KiCad,Pcbnew,(6.0.0-rc1-120-ge56e61ffb5)*%
%TF.CreationDate,2022-01-08T17:43:00+01:00*%
%TF.ProjectId,shield_gas_sensor,73686965-6c64-45f6-9761-735f73656e73,1.0*%
%TF.SameCoordinates,Original*%
%TF.FileFunction,Copper,L1,Top*%
%TF.FilePolarity,Positive*%
%FSLAX46Y46*%
G04 Gerber Fmt 4.6, Leading zero omitted, Abs format (unit mm)*
G04 Created by KiCad (PCBNEW (6.0.0-rc1-120-ge56e61ffb5)) date 2022-01-08 17:43:00*
%MOMM*%
%LPD*%
G01*
G04 APERTURE LIST*
%ADD10C,0.250000*%
%TA.AperFunction,NonConductor*%
%ADD11C,0.250000*%
%TD*%
%TA.AperFunction,ComponentPad*%
%ADD12C,4.064000*%
%TD*%
%TA.AperFunction,ComponentPad*%
%ADD13R,1.700000X1.700000*%
%TD*%
%TA.AperFunction,ComponentPad*%
%ADD14O,1.700000X1.700000*%
%TD*%
%TA.AperFunction,ComponentPad*%
%ADD15C,1.400000*%
%TD*%
%TA.AperFunction,ComponentPad*%
%ADD16O,1.400000X1.400000*%
%TD*%
%TA.AperFunction,ComponentPad*%
%ADD17C,4.500000*%
%TD*%
%TA.AperFunction,ComponentPad*%
%ADD18R,1.524000X1.524000*%
%TD*%
%TA.AperFunction,ComponentPad*%
%ADD19C,1.524000*%
%TD*%
%TA.AperFunction,ComponentPad*%
%ADD20O,1.600000X1.200000*%
%TD*%
%TA.AperFunction,ComponentPad*%
%ADD21O,1.200000X1.200000*%
%TD*%
%TA.AperFunction,ComponentPad*%
%ADD22R,2.200000X2.200000*%
%TD*%
%TA.AperFunction,ComponentPad*%
%ADD23C,2.200000*%
%TD*%
%TA.AperFunction,ComponentPad*%
%ADD24R,1.600000X1.600000*%
%TD*%
%TA.AperFunction,ComponentPad*%
%ADD25O,1.600000X1.600000*%
%TD*%
G04 APERTURE END LIST*
D10*
D11*
X176216571Y-113335000D02*
X176216571Y-112477857D01*
X177716571Y-112906428D02*
X176216571Y-112906428D01*
X176216571Y-111692142D02*
X176216571Y-111406428D01*
X176288000Y-111263571D01*
X176430857Y-111120714D01*
X176716571Y-111049285D01*
X177216571Y-111049285D01*
X177502285Y-111120714D01*
X177645142Y-111263571D01*
X177716571Y-111406428D01*
X177716571Y-111692142D01*
X177645142Y-111835000D01*
X177502285Y-111977857D01*
X177216571Y-112049285D01*
X176716571Y-112049285D01*
X176430857Y-111977857D01*
X176288000Y-111835000D01*
X176216571Y-111692142D01*
X177716571Y-110406428D02*
X176216571Y-110406428D01*
X176216571Y-109835000D01*
X176288000Y-109692142D01*
X176359428Y-109620714D01*
X176502285Y-109549285D01*
X176716571Y-109549285D01*
X176859428Y-109620714D01*
X176930857Y-109692142D01*
X177002285Y-109835000D01*
X177002285Y-110406428D01*
X177145142Y-107763571D02*
X177145142Y-106620714D01*
X177716571Y-103977857D02*
X177716571Y-104835000D01*
X177716571Y-104406428D02*
X176216571Y-104406428D01*
X176430857Y-104549285D01*
X176573714Y-104692142D01*
X176645142Y-104835000D01*
D12*
%TO.P,P6,1,Pin_1*%
%TO.N,unconnected-(P6-Pad1)*%
X177038000Y-118745000D03*
%TD*%
%TO.P,P7,1,Pin_1*%
%TO.N,unconnected-(P7-Pad1)*%
X126238000Y-75565000D03*
%TD*%
%TO.P,P8,1,Pin_1*%
%TO.N,unconnected-(P8-Pad1)*%
X177038000Y-90805000D03*
%TD*%
D13*
%TO.P,J4,1,Pin_1*%
%TO.N,/ANA_GAZ_0*%
X149098000Y-118745000D03*
D14*
%TO.P,J4,2,Pin_2*%
%TO.N,/A0*%
X151638000Y-118745000D03*
%TO.P,J4,3,Pin_3*%
%TO.N,/ANA_GAZ_1*%
X154178000Y-118745000D03*
%TD*%
D15*
%TO.P,JP1,1,A*%
%TO.N,GND*%
X138430000Y-102439000D03*
D16*
%TO.P,JP1,2,B*%
X138430000Y-97359000D03*
%TD*%
D17*
%TO.P,J3,0*%
%TO.N,N/C*%
X134212000Y-107645000D03*
X172212000Y-107645000D03*
X172212000Y-80645000D03*
X127212000Y-80645000D03*
D13*
%TO.P,J3,1,Pin_1*%
%TO.N,/11 Rx*%
X172212000Y-85217000D03*
D14*
%TO.P,J3,2,Pin_2*%
%TO.N,/10 Tx *%
X172212000Y-87757000D03*
%TO.P,J3,3,Pin_3*%
%TO.N,unconnected-(J3-Pad3)*%
X172212000Y-90297000D03*
%TO.P,J3,4,Pin_4*%
%TO.N,unconnected-(J3-Pad4)*%
X172212000Y-92837000D03*
%TO.P,J3,5,Pin_5*%
%TO.N,/12 RST*%
X172212000Y-95377000D03*
%TO.P,J3,6,Pin_6*%
%TO.N,+3V3*%
X172212000Y-97917000D03*
%TO.P,J3,7,Pin_7*%
%TO.N,unconnected-(J3-Pad7)*%
X172212000Y-100457000D03*
%TO.P,J3,8,Pin_8*%
%TO.N,GND*%
X172212000Y-102997000D03*
%TD*%
D15*
%TO.P,JP3,1,A*%
%TO.N,GND*%
X162306000Y-118491000D03*
D16*
%TO.P,JP3,2,B*%
X162306000Y-113411000D03*
%TD*%
D18*
%TO.P,J2,1,Pin_1*%
%TO.N,GND*%
X116078000Y-112395000D03*
D19*
%TO.P,J2,2,Pin_2*%
%TO.N,+5V*%
X116078000Y-114395000D03*
%TO.P,J2,3,Pin_3*%
%TO.N,unconnected-(J2-Pad3)*%
X116078000Y-116395000D03*
%TO.P,J2,4,Pin_4*%
%TO.N,/ANA_GAZ_1*%
X116078000Y-118395000D03*
%TD*%
D13*
%TO.P,J5,1,Pin_1*%
%TO.N,+3V3*%
X149098000Y-113665000D03*
D14*
%TO.P,J5,2,Pin_2*%
%TO.N,/D2*%
X151638000Y-113665000D03*
%TO.P,J5,3,Pin_3*%
%TO.N,GND*%
X154178000Y-113665000D03*
%TD*%
D20*
%TO.P,S1,1,temp_1*%
%TO.N,+3V3*%
X113925000Y-79883000D03*
D21*
%TO.P,S1,2,gas1_a*%
X114482670Y-81599333D03*
%TO.P,S1,3,heater_1*%
%TO.N,/0-12V Power Supply*%
X115942670Y-82660085D03*
%TO.P,S1,4,gas1_b*%
%TO.N,/Isens*%
X117747330Y-82660085D03*
%TO.P,S1,5,NC*%
%TO.N,unconnected-(S1-Pad5)*%
X119207330Y-81599333D03*
%TO.P,S1,6,temp_2*%
%TO.N,/A1*%
X119765000Y-79883000D03*
%TO.P,S1,7,gas2_a*%
%TO.N,unconnected-(S1-Pad7)*%
X119207330Y-78166667D03*
%TO.P,S1,8,heater_2*%
%TO.N,GND*%
X117747330Y-77105915D03*
%TO.P,S1,9,gas2_b*%
%TO.N,unconnected-(S1-Pad9)*%
X115942670Y-77105915D03*
%TO.P,S1,10,NC*%
%TO.N,unconnected-(S1-Pad10)*%
X114482670Y-78166667D03*
%TD*%
D22*
%TO.P,J1,1,Pin_1*%
%TO.N,GND*%
X116078000Y-89027000D03*
D23*
%TO.P,J1,2,Pin_2*%
%TO.N,/0-12V Power Supply*%
X116078000Y-91567000D03*
%TD*%
D15*
%TO.P,JP2,1,A*%
%TO.N,+3V3*%
X165100000Y-118491000D03*
D16*
%TO.P,JP2,2,B*%
X165100000Y-113411000D03*
%TD*%
D24*
%TO.P,U1,1,NC*%
%TO.N,unconnected-(U1-Pad1)*%
X131298000Y-122545000D03*
D25*
%TO.P,U1,2,-IN*%
%TO.N,Net-(C4-Pad1)*%
X131298000Y-120005000D03*
%TO.P,U1,3,+IN*%
%TO.N,Net-(C1-Pad1)*%
X131298000Y-117465000D03*
%TO.P,U1,4,V-*%
%TO.N,GND*%
X131298000Y-114925000D03*
%TO.P,U1,5,EXT_CLOCK_IN*%
%TO.N,unconnected-(U1-Pad5)*%
X123678000Y-114925000D03*
%TO.P,U1,6,OUT*%
%TO.N,Net-(C4-Pad2)*%
X123678000Y-117465000D03*
%TO.P,U1,7,V+*%
%TO.N,+5V*%
X123678000Y-120005000D03*
%TO.P,U1,8,NC*%
%TO.N,unconnected-(U1-Pad8)*%
X123678000Y-122545000D03*
%TD*%
D13*
%TO.P,P1,1,Pin_1*%
%TO.N,unconnected-(P1-Pad1)*%
X138938000Y-123825000D03*
D14*
%TO.P,P1,2,Pin_2*%
%TO.N,/IOREF*%
X141478000Y-123825000D03*
%TO.P,P1,3,Pin_3*%
%TO.N,/Reset*%
X144018000Y-123825000D03*
%TO.P,P1,4,Pin_4*%
%TO.N,+3V3*%
X146558000Y-123825000D03*
%TO.P,P1,5,Pin_5*%
%TO.N,+5V*%
X149098000Y-123825000D03*
%TO.P,P1,6,Pin_6*%
%TO.N,GND*%
X151638000Y-123825000D03*
%TO.P,P1,7,Pin_7*%
X154178000Y-123825000D03*
%TO.P,P1,8,Pin_8*%
%TO.N,/Vin*%
X156718000Y-123825000D03*
%TD*%
D13*
%TO.P,P2,1,Pin_1*%
%TO.N,/A0*%
X161798000Y-123825000D03*
D14*
%TO.P,P2,2,Pin_2*%
%TO.N,/A1*%
X164338000Y-123825000D03*
%TO.P,P2,3,Pin_3*%
%TO.N,/A2*%
X166878000Y-123825000D03*
%TO.P,P2,4,Pin_4*%
%TO.N,/A3*%
X169418000Y-123825000D03*
%TO.P,P2,5,Pin_5*%
%TO.N,/A4(SDA)*%
X171958000Y-123825000D03*
%TO.P,P2,6,Pin_6*%
%TO.N,/A5(SCL)*%
X174498000Y-123825000D03*
%TD*%
D13*
%TO.P,P3,1,Pin_1*%
%TO.N,unconnected-(P3-Pad1)*%
X129794000Y-75565000D03*
D14*
%TO.P,P3,2,Pin_2*%
%TO.N,unconnected-(P3-Pad2)*%
X132334000Y-75565000D03*
%TO.P,P3,3,Pin_3*%
%TO.N,/AREF*%
X134874000Y-75565000D03*
%TO.P,P3,4,Pin_4*%
%TO.N,GND*%
X137414000Y-75565000D03*
%TO.P,P3,5,Pin_5*%
%TO.N,/13(SCK)*%
X139954000Y-75565000D03*
%TO.P,P3,6,Pin_6*%
%TO.N,/12 RST*%
X142494000Y-75565000D03*
%TO.P,P3,7,Pin_7*%
%TO.N,/11 Rx*%
X145034000Y-75565000D03*
%TO.P,P3,8,Pin_8*%
%TO.N,/10 Tx *%
X147574000Y-75565000D03*
%TO.P,P3,9,Pin_9*%
%TO.N,/9(\u002A\u002A)*%
X150114000Y-75565000D03*
%TO.P,P3,10,Pin_10*%
%TO.N,/8*%
X152654000Y-75565000D03*
%TD*%
D13*
%TO.P,P4,1,Pin_1*%
%TO.N,/7*%
X156718000Y-75565000D03*
D14*
%TO.P,P4,2,Pin_2*%
%TO.N,/6(\u002A\u002A)*%
X159258000Y-75565000D03*
%TO.P,P4,3,Pin_3*%
%TO.N,/5(\u002A\u002A)*%
X161798000Y-75565000D03*
%TO.P,P4,4,Pin_4*%
%TO.N,/4*%
X164338000Y-75565000D03*
%TO.P,P4,5,Pin_5*%
%TO.N,/3(\u002A\u002A)*%
X166878000Y-75565000D03*
%TO.P,P4,6,Pin_6*%
%TO.N,/2*%
X169418000Y-75565000D03*
%TO.P,P4,7,Pin_7*%
%TO.N,/1(Tx)*%
X171958000Y-75565000D03*
%TO.P,P4,8,Pin_8*%
%TO.N,/0(Rx)*%
X174498000Y-75565000D03*
%TD*%
M02*
